<?xml version="1.0" standalone="no"?>
<!DOCTYPE svg PUBLIC "-//W3C//DTD SVG 20010904//EN"
 "http://www.w3.org/TR/2001/REC-SVG-20010904/DTD/svg10.dtd">
<svg version="1.0" xmlns="http://www.w3.org/2000/svg"
 width="328.000000pt" height="328.000000pt" viewBox="0 0 328.000000 328.000000"
 preserveAspectRatio="xMidYMid meet">
<metadata>
Created by potrace 1.14, written by Peter Selinger 2001-2017
</metadata>
<g transform="translate(0.000000,328.000000) scale(0.100000,-0.100000)"
fill="#000000" stroke="none">
<path d="M1295 2163 c2 -219 6 -405 10 -414 3 -9 12 -16 19 -16 13 0 113 -28
146 -40 8 -4 17 -7 20 -7 3 -1 10 -5 16 -9 7 -4 14 -1 16 6 2 6 3 155 2 329
l-1 318 -26 39 c-32 48 -144 159 -169 167 -10 3 -18 10 -18 15 0 5 -4 9 -10 9
-5 0 -8 -150 -5 -397z"/>
<path d="M2030 2551 c0 -6 -4 -11 -10 -11 -18 0 -133 -111 -168 -162 -9 -13
-20 -26 -25 -30 -6 -4 -11 -140 -12 -342 0 -185 -1 -336 -1 -336 1 0 26 9 56
21 30 12 65 23 77 25 12 2 39 10 60 17 l38 12 1 403 c1 231 -2 404 -7 408 -5
3 -9 0 -9 -5z"/>
<path d="M1656 1952 c-3 -9 -8 -60 -11 -112 -8 -112 -11 -150 -16 -169 -8 -30
-88 -189 -99 -196 -6 -3 -9 -3 -8 2 5 18 -14 51 -35 61 -31 16 -130 72 -142
82 -5 4 -19 9 -30 12 -20 5 -20 0 -18 -191 1 -108 2 -325 3 -483 2 -159 4
-288 6 -288 5 0 29 58 49 115 9 28 21 59 25 70 15 33 62 159 64 172 1 7 5 16
9 19 4 4 7 16 7 26 0 10 5 18 10 18 6 0 10 10 10 23 0 13 4 27 9 32 6 6 12 22
15 37 2 15 8 33 12 39 3 6 8 46 9 88 4 113 4 108 14 92 11 -18 92 -23 106 -8
6 7 11 50 12 97 2 129 6 170 14 165 10 -7 16 -75 6 -75 -4 0 -6 -4 -3 -9 3 -4
7 -45 10 -91 5 -90 11 -100 63 -100 31 0 61 29 46 44 -3 3 0 6 8 6 12 0 14
-20 14 -101 0 -55 3 -103 8 -106 4 -2 7 -14 7 -26 0 -13 8 -34 17 -47 10 -14
16 -25 13 -25 -2 0 3 -21 10 -47 8 -27 18 -48 22 -48 4 0 7 -3 6 -7 0 -5 2
-17 6 -28 5 -11 25 -65 46 -120 21 -55 41 -109 46 -120 4 -11 8 -23 9 -27 2
-5 3 -9 5 -10 1 -2 3 -11 5 -22 2 -10 8 -23 13 -28 6 -6 10 55 11 169 0 98 2
320 3 494 l3 316 -22 -10 c-13 -6 -23 -14 -23 -18 0 -7 -53 -23 -58 -17 -2 2
-8 -5 -13 -14 -6 -10 -16 -18 -23 -18 -7 0 -22 -8 -34 -17 -11 -10 -30 -26
-41 -35 -12 -10 -18 -24 -15 -33 4 -9 1 -15 -8 -15 -8 0 -15 12 -16 27 -1 15
-6 29 -11 32 -10 7 -63 121 -77 166 -5 17 -9 60 -9 97 0 38 -2 68 -5 68 -3 0
-4 19 -4 42 2 46 -20 83 -30 50z"/>
<path d="M750 1775 c0 -7 30 -13 34 -7 3 4 -4 9 -15 9 -10 1 -19 0 -19 -2z"/>
<path d="M810 1770 c7 -4 30 -7 51 -6 22 0 39 -3 39 -8 0 -5 2 -7 5 -4 3 3 27
1 53 -4 130 -24 118 -21 156 -37 16 -6 31 -9 33 -7 3 3 30 -6 60 -20 31 -13
59 -24 63 -24 13 0 5 65 -10 74 -8 6 -28 11 -45 13 -16 2 -43 5 -60 8 -103 17
-367 28 -345 15z"/>
<path d="M2337 1774 c-1 -1 -36 -5 -77 -8 -41 -3 -88 -9 -105 -12 -16 -3 -39
-7 -50 -8 -36 -4 -45 -16 -45 -56 l0 -39 58 23 c56 24 92 38 102 41 3 0 14 4
25 7 11 4 36 9 55 12 19 3 49 8 65 12 55 11 80 15 130 21 28 3 52 7 54 9 4 4
-208 1 -212 -2z"/>
</g>
</svg>
